HIERARCHY
ROOT joint_Root
{
	OFFSET 0.0 0.0 0.0
	CHANNELS 6 Xposition Yposition Zposition Zrotation Xrotation Yrotation 
	JOINT Hips
	{
		OFFSET -17.1583 93.1646 452.98
		CHANNELS 6 Xposition Yposition Zposition Zrotation Xrotation Yrotation 
		JOINT Spine
		{
			OFFSET 15.7357 0.0 0.0
			CHANNELS 6 Xposition Yposition Zposition Zrotation Xrotation Yrotation 
			JOINT Chest
			{
				OFFSET 8.98455 -0.406207 0.0
				CHANNELS 6 Xposition Yposition Zposition Zrotation Xrotation Yrotation 
				JOINT Neck
				{
					OFFSET 16.3773 0.0 0.0
					CHANNELS 6 Xposition Yposition Zposition Zrotation Xrotation Yrotation 
					JOINT Head
					{
						OFFSET 6.45672 0.0 0.0
						CHANNELS 6 Xposition Yposition Zposition Zrotation Xrotation Yrotation 
						End Site
						{
							OFFSET 0.0 0.0 0.0
						}
					}
				}
				JOINT Shoulder_L
				{
					OFFSET 12.9942 -0.242716 4.98039
					CHANNELS 6 Xposition Yposition Zposition Zrotation Xrotation Yrotation 
					JOINT UpperArm_L
					{
						OFFSET 5.34809 0.0 0.0
						CHANNELS 6 Xposition Yposition Zposition Zrotation Xrotation Yrotation 
						JOINT LowerArm_L
						{
							OFFSET 24.3286 1.87007e-05 0.0
							CHANNELS 6 Xposition Yposition Zposition Zrotation Xrotation Yrotation 
							JOINT Hand_L
							{
								OFFSET 22.2916 0.0 0.0
								CHANNELS 6 Xposition Yposition Zposition Zrotation Xrotation Yrotation 
								End Site
								{
									OFFSET 0.0 0.0 0.0
								}
							}
						}
					}
				}
				JOINT Shoulder_R
				{
					OFFSET 12.9945 -0.242716 -4.98039
					CHANNELS 6 Xposition Yposition Zposition Zrotation Xrotation Yrotation 
					JOINT UpperArm_R
					{
						OFFSET -5.34813 0.0 0.0
						CHANNELS 6 Xposition Yposition Zposition Zrotation Xrotation Yrotation 
						JOINT LowerArm_R
						{
							OFFSET -24.3289 0.000322201 0.0
							CHANNELS 6 Xposition Yposition Zposition Zrotation Xrotation Yrotation 
							JOINT Hand_R
							{
								OFFSET -22.2915 -0.000108084 0.0
								CHANNELS 6 Xposition Yposition Zposition Zrotation Xrotation Yrotation 
								End Site
								{
									OFFSET 0.0 0.0 0.0
								}
							}
						}
					}
				}
			}
		}
		JOINT UpperLeg_L
		{
			OFFSET -2.19248 -6.46944 0.0
			CHANNELS 6 Xposition Yposition Zposition Zrotation Xrotation Yrotation 
			JOINT LowerLeg_L
			{
				OFFSET 39.0811 0.0 -1.23785e-05
				CHANNELS 6 Xposition Yposition Zposition Zrotation Xrotation Yrotation 
				JOINT Foot_L
				{
					OFFSET 40.9854 0.0 -1.26872e-05
					CHANNELS 6 Xposition Yposition Zposition Zrotation Xrotation Yrotation 
					JOINT Toes_L
					{
						OFFSET 11.7543 0.0 0.0
						CHANNELS 6 Xposition Yposition Zposition Zrotation Xrotation Yrotation 
						End Site
						{
							OFFSET 0.0 0.0 0.0
						}
					}
				}
			}
		}
		JOINT UpperLeg_R
		{
			OFFSET -2.19251 6.46944 0.0
			CHANNELS 6 Xposition Yposition Zposition Zrotation Xrotation Yrotation 
			JOINT LowerLeg_R
			{
				OFFSET -39.0811 -0.00228153 -0.0401928
				CHANNELS 6 Xposition Yposition Zposition Zrotation Xrotation Yrotation 
				JOINT Foot_R
				{
					OFFSET -40.9854 0.0 0.0
					CHANNELS 6 Xposition Yposition Zposition Zrotation Xrotation Yrotation 
					JOINT Toes_R
					{
						OFFSET -11.7543 0.0 0.0
						CHANNELS 6 Xposition Yposition Zposition Zrotation Xrotation Yrotation 
						End Site
						{
							OFFSET 0.0 0.0 0.0
						}
					}
				}
			}
		}
	}
}
MOTION
Frames:	8
Frame Time:	0.0333333
0.000000 0.000000 0.000000 0.000000 0.000000 -0.000000 4.744940 93.109400 -544.595000 85.191800 -1.382500 0.313655 15.735700 0.000005 -0.000001 74.123000 83.384000 -71.247500 8.984550 -0.406207 -0.000000 5.068540 -3.680130 5.909070 16.377300 -0.000001 -0.000001 4.985200 4.469900 -1.936650 6.456720 -0.000001 -0.000000 -9.283860 5.775740 1.275780 12.994200 -0.242716 4.980390 -93.136600 8.567620 -69.805000 5.348090 -0.000007 -0.000001 -73.767100 12.304300 -6.068860 24.328600 0.000019 0.000005 4.473040 32.233500 -8.344120 22.291600 -0.000001 0.000005 -8.278390 5.242270 1.635280 12.994500 -0.242716 -4.980390 87.898400 5.316820 -68.395100 -5.348130 -0.000001 -0.000004 -65.827100 4.635660 -1.225320 -24.328900 0.000322 -0.000009 1.728790 11.870600 -8.348490 -22.291500 -0.000108 -0.000004 -1.486000 5.238070 1.715010 -2.192480 -6.469440 -0.000000 -175.826000 -11.817500 3.951950 39.081100 -0.000007 -0.000012 0.123893 -0.537967 12.969300 40.985400 -0.000006 -0.000013 7.444690 19.998700 -76.182700 11.754300 -0.000000 0.000003 0.001255 0.142825 -10.784700 -2.192510 6.469440 -0.000001 179.921000 -5.455960 160.083000 -39.081100 -0.002282 -0.040193 0.025582 -0.023557 43.446200 -40.985400 0.000008 0.000006 -6.886700 -7.521390 -68.497100 -11.754300 -0.000006 -0.000006 -0.000325 0.172971 -9.557400
0.000000 0.000000 0.000000 0.000000 0.000000 -0.000000 4.790000 93.049500 -543.294000 84.737900 -0.451440 0.159762 15.735700 0.000005 -0.000001 70.546700 83.433300 -67.393700 8.984550 -0.406207 -0.000000 4.759520 -4.448450 6.486420 16.377300 -0.000001 -0.000001 5.723530 4.423410 -2.332300 6.456720 -0.000001 -0.000000 -9.082900 6.040760 1.176540 12.994200 -0.242716 4.980390 -93.018000 8.229180 -69.779200 5.348090 -0.000007 -0.000001 -71.229400 12.597600 -10.727700 24.328600 0.000019 0.000005 6.141840 32.380900 -11.360300 22.291600 -0.000001 0.000005 -7.720560 5.212960 2.390120 12.994500 -0.242716 -4.980390 88.080200 4.713510 -67.808800 -5.348130 -0.000001 -0.000004 -62.677500 -2.499440 2.779920 -24.328900 0.000322 -0.000009 0.652600 10.540300 -3.565620 -22.291500 -0.000108 -0.000004 1.543040 5.160280 3.681710 -2.192480 -6.469440 -0.000000 -174.801000 -13.268900 5.413890 39.081100 -0.000007 -0.000012 0.104467 -0.511705 11.538800 40.985400 -0.000006 -0.000013 7.667410 22.402200 -76.453100 11.754300 -0.000000 0.000003 0.001270 0.142449 -10.800000 -2.192510 6.469440 -0.000001 -179.560000 -4.557450 157.291000 -39.081100 -0.002282 -0.040193 0.027204 -0.025370 43.333100 -40.985400 0.000008 0.000006 -7.103090 -9.194830 -68.358500 -11.754300 -0.000006 -0.000006 -0.000128 0.169788 -9.686700
0.000000 0.000000 0.000000 0.000000 0.000000 -0.000000 4.754190 92.945500 -541.919000 84.454500 0.280258 0.038303 15.735700 0.000005 -0.000001 68.085900 83.416500 -64.786900 8.984550 -0.406207 -0.000000 4.616340 -4.996040 6.795410 16.377300 -0.000001 -0.000001 5.853310 4.325530 -2.602330 6.456720 -0.000001 -0.000000 -8.921750 6.191970 1.329360 12.994200 -0.242716 4.980390 -92.910200 7.963070 -69.849200 5.348090 -0.000007 -0.000001 -67.772800 11.737500 -15.260100 24.328600 0.000019 0.000005 8.611930 31.550400 -16.143000 22.291600 -0.000001 0.000005 -6.990810 5.151730 3.892230 12.994500 -0.242716 -4.980390 88.233500 4.254090 -67.424500 -5.348130 -0.000001 -0.000004 -58.271500 -7.794440 7.157090 -24.328900 0.000322 -0.000009 0.147209 8.457010 -1.010280 -22.291500 -0.000108 -0.000004 4.119480 5.128470 4.432920 -2.192480 -6.469440 -0.000000 -173.723000 -14.768800 6.610020 39.081100 -0.000007 -0.000012 0.076060 -0.404290 10.654800 40.985400 -0.000006 -0.000013 6.937110 24.926200 -76.117000 11.754300 -0.000000 0.000003 0.001475 0.137300 -11.008900 -2.192510 6.469440 -0.000001 -179.176000 -3.620560 155.228000 -39.081100 -0.002282 -0.040193 0.030053 -0.030178 41.584300 -40.985400 0.000008 0.000006 -7.357280 -8.585010 -68.190300 -11.754300 -0.000006 -0.000006 0.000038 0.167034 -9.798530
0.000000 0.000000 0.000000 0.000000 0.000000 -0.000000 4.631500 92.806600 -540.428000 84.334400 0.728207 -0.350815 15.735700 0.000005 -0.000001 65.888700 83.432200 -62.568700 8.984550 -0.406207 -0.000000 4.406720 -5.454450 6.846590 16.377300 -0.000001 -0.000001 5.589630 4.355420 -2.723160 6.456720 -0.000001 -0.000000 -8.854040 6.366910 1.635740 12.994200 -0.242716 4.980390 -92.607500 7.086470 -69.738300 5.348090 -0.000007 -0.000001 -64.810200 9.826930 -19.157400 24.328600 0.000019 0.000005 11.598900 30.328100 -22.120400 22.291600 -0.000001 0.000005 -4.399100 5.087570 5.384850 12.994500 -0.242716 -4.980390 88.459800 3.635590 -67.021900 -5.348130 -0.000001 -0.000004 -54.032500 -10.231300 11.126100 -24.328900 0.000322 -0.000009 -0.001097 6.755010 0.000024 -22.291500 -0.000108 -0.000004 6.280970 5.131170 4.393160 -2.192480 -6.469440 -0.000000 -172.613000 -16.572500 7.635000 39.081100 -0.000007 -0.000012 0.044973 -0.259474 9.833210 40.985400 -0.000006 -0.000013 5.164580 27.819200 -75.398400 11.754300 -0.000000 0.000003 0.001172 0.144761 -10.706200 -2.192510 6.469440 -0.000001 -178.788000 -2.428800 153.582000 -39.081100 -0.002282 -0.040193 0.031442 -0.035569 38.368200 -40.985400 0.000008 0.000006 -7.424820 -6.900450 -67.558200 -11.754300 -0.000006 -0.000006 -0.000411 0.174317 -9.502740
0.000000 0.000000 0.000000 0.000000 0.000000 -0.000000 4.430450 92.643200 -538.801000 84.378000 0.974721 -1.137070 15.735700 0.000005 -0.000001 63.151500 83.588200 -59.887200 8.984550 -0.406207 -0.000000 3.868770 -5.894570 6.725320 16.377300 -0.000001 -0.000001 5.332540 4.475660 -2.779140 6.456720 -0.000001 -0.000000 -8.823500 6.578970 1.846550 12.994200 -0.242716 4.980390 -92.215600 5.980020 -69.626500 5.348090 -0.000007 -0.000001 -62.797900 6.395100 -22.083300 24.328600 0.000019 0.000005 13.841500 27.578000 -28.025500 22.291600 -0.000001 0.000005 -1.295980 5.035080 6.555460 12.994500 -0.242716 -4.980390 88.780500 2.861580 -66.905800 -5.348130 -0.000001 -0.000004 -50.095000 -12.212000 14.906600 -24.328900 0.000322 -0.000009 0.020471 7.335530 -0.167795 -22.291500 -0.000108 -0.000004 7.907840 5.124140 4.557640 -2.192480 -6.469440 -0.000000 -171.666000 -17.855700 8.494840 39.081100 -0.000007 -0.000012 0.009667 -0.063846 8.610160 40.985400 -0.000006 -0.000013 1.787960 30.518100 -73.404100 11.754300 -0.000000 0.000003 0.001516 0.136212 -11.053000 -2.192510 6.469440 -0.000001 -178.305000 -0.901273 152.127000 -39.081100 -0.002282 -0.040193 0.031819 -0.042169 34.077300 -40.985400 0.000008 0.000006 -7.676860 -5.339340 -66.440500 -11.754300 -0.000006 -0.000006 -0.000217 0.171238 -9.627810
0.000000 0.000000 0.000000 0.000000 0.000000 -0.000000 4.101580 92.444000 -536.980000 84.338700 1.319870 -2.126210 15.735700 0.000005 -0.000001 59.427500 83.832700 -56.198900 8.984550 -0.406207 -0.000000 3.059320 -6.399950 6.626860 16.377300 -0.000001 -0.000001 5.232040 4.515990 -2.774680 6.456720 -0.000001 -0.000000 -8.866900 6.817350 1.953410 12.994200 -0.242716 4.980390 -91.943800 5.199320 -69.468400 5.348090 -0.000007 -0.000001 -60.643000 3.226560 -24.173900 24.328600 0.000019 0.000005 14.631000 23.384100 -33.338500 22.291600 -0.000001 0.000005 2.055970 4.981480 7.699790 12.994500 -0.242716 -4.980390 89.063600 2.183710 -66.782600 -5.348130 -0.000001 -0.000004 -46.792700 -13.027500 17.981100 -24.328900 0.000322 -0.000009 0.084760 6.908120 -0.714478 -22.291500 -0.000108 -0.000004 10.735400 5.130960 4.396460 -2.192480 -6.469440 -0.000000 -170.564000 -18.488100 9.822710 39.081100 -0.000007 -0.000012 -0.004459 0.041366 6.151750 40.985400 -0.000006 -0.000013 -3.361780 33.161300 -69.768800 11.754300 -0.000000 0.000003 0.001796 0.128011 -11.385700 -2.192510 6.469440 -0.000001 -177.374000 0.731424 150.982000 -39.081100 -0.002282 -0.040193 0.027640 -0.043247 29.367700 -40.985400 0.000008 0.000006 -7.433150 -5.084230 -66.243300 -11.754300 -0.000006 -0.000006 -0.000585 0.176990 -9.394140
0.000000 0.000000 0.000000 0.000000 0.000000 -0.000000 3.720020 92.247600 -534.979000 84.310400 1.967110 -3.371870 15.735700 0.000005 -0.000001 54.631600 84.124500 -51.436500 8.984550 -0.406207 -0.000000 2.033200 -6.957220 6.514100 16.377300 -0.000001 -0.000001 4.897880 4.456650 -2.764480 6.456720 -0.000001 -0.000000 -8.768330 6.902960 2.100560 12.994200 -0.242716 4.980390 -91.780000 4.759640 -69.467900 5.348090 -0.000007 -0.000001 -58.826700 -0.014580 -25.533600 24.328600 0.000019 0.000005 16.194500 21.046000 -38.961700 22.291600 -0.000001 0.000005 5.363370 4.932030 8.716710 12.994500 -0.242716 -4.980390 89.309500 1.602610 -66.685800 -5.348130 -0.000001 -0.000004 -44.183600 -14.216600 20.096200 -24.328900 0.000322 -0.000009 0.065391 6.191550 -0.616094 -22.291500 -0.000108 -0.000004 13.607000 5.145440 4.050990 -2.192480 -6.469440 -0.000000 -169.468000 -19.832800 10.969200 39.081100 -0.000007 -0.000012 0.000993 -0.015240 3.731470 40.985400 -0.000006 -0.000013 -6.569210 35.989200 -66.675600 11.754300 -0.000000 0.000003 0.002238 0.110381 -12.100600 -2.192510 6.469440 -0.000001 -176.293000 2.295040 149.931000 -39.081100 -0.002282 -0.040193 0.024809 -0.047107 24.528700 -40.985400 0.000008 0.000006 -7.130930 -5.730160 -65.754600 -11.754300 -0.000006 -0.000006 -0.000403 0.174188 -9.507990
0.000000 0.000000 0.000000 0.000000 0.000000 -0.000000 3.239900 92.020700 -532.708000 84.202300 2.475440 -4.500310 15.735700 0.000005 -0.000001 50.970400 84.410300 -47.775600 8.984550 -0.406207 -0.000000 1.139130 -7.221690 6.463030 16.377300 -0.000001 -0.000001 4.270000 4.304470 -2.679920 6.456720 -0.000001 -0.000000 -8.830090 6.800060 2.008370 12.994200 -0.242716 4.980390 -91.674600 4.510320 -69.606600 5.348090 -0.000007 -0.000001 -57.809400 -2.718870 -26.005900 24.328600 0.000019 0.000005 18.525700 19.444900 -45.184800 22.291600 -0.000001 0.000005 9.635310 4.876970 9.820650 12.994500 -0.242716 -4.980390 89.527700 1.106760 -66.891400 -5.348130 -0.000001 -0.000004 -42.735600 -15.286200 21.869300 -24.328900 0.000322 -0.000009 0.092109 5.630530 -0.949333 -22.291500 -0.000108 -0.000004 16.394600 5.128680 4.444980 -2.192480 -6.469440 -0.000000 -168.833000 -19.180400 10.967300 39.081100 -0.000007 -0.000012 0.002477 -0.035238 4.021440 40.985400 -0.000006 -0.000013 -6.737650 36.476300 -66.369800 11.754300 -0.000000 0.000003 0.002455 0.093314 -12.792600 -2.192510 6.469440 -0.000001 -175.061000 3.452500 149.179000 -39.081100 -0.002282 -0.040193 0.021483 -0.048815 20.407800 -40.985400 0.000008 0.000006 -6.699770 -6.324500 -65.369200 -11.754300 -0.000006 -0.000006 -0.000533 0.176200 -9.426250
